<svg width="204" height="45" viewBox="0 0 204 45" fill="none" xmlns="http://www.w3.org/2000/svg">
<rect width="203.956" height="44.5732" rx="10.8056" fill="white" fill-opacity="0.85"/>
<g clip-path="url(#clip0_563_237)">
<path d="M27.0156 16.3716V30.9022C27.0156 31.0477 27.2025 31.1205 27.3117 31.0176L34.6762 24.0846C34.7417 24.0229 34.7441 23.9237 34.6817 23.8592L27.317 16.2615C27.2103 16.1514 27.0156 16.2226 27.0156 16.3716Z" fill="url(#paint0_linear_563_237)"/>
<path d="M45.7343 16.208H27.2068C27.0528 16.208 26.9621 16.3712 27.0501 16.4903L33.4967 25.2187C33.5729 25.3219 33.6903 25.3824 33.8146 25.3824H39.3722C39.4992 25.3824 39.6187 25.3195 39.6949 25.2124L45.893 16.4876C45.9778 16.3682 45.887 16.208 45.7343 16.208Z" fill="url(#paint1_linear_563_237)"/>
<path d="M44.2808 30.5329C45.1866 30.5329 45.9209 29.7608 45.9209 28.8084C45.9209 27.856 45.1866 27.084 44.2808 27.084C43.375 27.084 42.6406 27.856 42.6406 28.8084C42.6406 29.7608 43.375 30.5329 44.2808 30.5329Z" fill="url(#paint2_linear_563_237)"/>
</g>
<path d="M67.5879 17.5527V22.9555H66.7775V17.5527H67.5879ZM67.5879 23.4742V26.8672H61.5044V23.4742H67.5879ZM62.2932 24.1225V26.208H66.7991V24.1225H62.2932ZM62.5309 18.0498C62.9991 18.0498 63.4206 18.1434 63.7952 18.3307C64.1698 18.518 64.4615 18.7773 64.6704 19.1087C64.8793 19.4401 64.9838 19.8219 64.9838 20.2541C64.9838 20.6791 64.8793 21.0609 64.6704 21.3995C64.4615 21.7309 64.1698 21.9902 63.7952 22.1775C63.4206 22.3576 62.9991 22.4476 62.5309 22.4476C62.0627 22.4476 61.6412 22.3576 61.2666 22.1775C60.8921 21.9902 60.6003 21.7309 60.3914 21.3995C60.1825 21.0609 60.078 20.6755 60.078 20.2433C60.078 19.8183 60.1825 19.4401 60.3914 19.1087C60.6003 18.7773 60.8921 18.518 61.2666 18.3307C61.6412 18.1434 62.0627 18.0498 62.5309 18.0498ZM62.5309 18.7305C62.2139 18.7305 61.9294 18.7953 61.6773 18.925C61.4251 19.0547 61.227 19.2348 61.0829 19.4653C60.9389 19.6958 60.8668 19.9587 60.8668 20.2541C60.8668 20.5495 60.9389 20.8124 61.0829 21.0429C61.227 21.2734 61.4251 21.4535 61.6773 21.5832C61.9294 21.7057 62.2139 21.7669 62.5309 21.7669C62.8479 21.7669 63.1324 21.7057 63.3846 21.5832C63.6367 21.4535 63.8348 21.2734 63.9789 21.0429C64.1229 20.8124 64.195 20.5495 64.195 20.2541C64.195 19.9587 64.1229 19.6958 63.9789 19.4653C63.8348 19.2348 63.6367 19.0547 63.3846 18.925C63.1324 18.7953 62.8479 18.7305 62.5309 18.7305ZM72.4831 18.3739V20.092C72.4831 20.7908 72.3607 21.4715 72.1158 22.1343C71.878 22.7898 71.5503 23.3733 71.1324 23.8848C70.7146 24.3891 70.2536 24.7673 69.7493 25.0194L69.2523 24.3494C69.7061 24.1333 70.1275 23.802 70.5165 23.3553C70.9127 22.9087 71.2261 22.4008 71.4566 21.8317C71.6871 21.2554 71.8024 20.6755 71.8024 20.092V18.3739H72.4831ZM72.6128 18.3739V20.092C72.6128 20.6539 72.7281 21.2122 72.9586 21.7669C73.1891 22.3144 73.4989 22.8042 73.8879 23.2365C74.2769 23.6687 74.6983 23.9893 75.1521 24.1982L74.6659 24.8465C74.1616 24.5944 73.7006 24.227 73.2828 23.7443C72.8722 23.2617 72.5444 22.7034 72.2995 22.0694C72.0617 21.4283 71.9429 20.7692 71.9429 20.092V18.3739H72.6128ZM77.0107 17.5311V27.0076H76.2003V17.5311H77.0107ZM88.9887 17.5311V27.0076H88.1891V17.5311H88.9887ZM88.4268 20.9997V21.6588H86.1036V20.9997H88.4268ZM84.3098 18.871V20.3622C84.3098 21.0105 84.191 21.6552 83.9532 22.2964C83.7155 22.9303 83.3914 23.4958 82.9807 23.9929C82.5701 24.4899 82.1235 24.8681 81.6408 25.1274L81.1654 24.4791C81.612 24.263 82.0226 23.9352 82.3972 23.4958C82.779 23.0564 83.0816 22.5629 83.3049 22.0154C83.5354 21.4607 83.6507 20.9096 83.6507 20.3622V18.871H84.3098ZM84.4611 18.871V20.3622C84.4611 20.8736 84.5728 21.3923 84.7961 21.9182C85.0266 22.444 85.3328 22.9195 85.7146 23.3445C86.0964 23.7623 86.5106 24.0757 86.9572 24.2846L86.471 24.9329C85.9811 24.688 85.5345 24.3278 85.1311 23.8524C84.7276 23.3697 84.4071 22.8222 84.1694 22.2099C83.9316 21.5976 83.8128 20.9817 83.8128 20.3622V18.871H84.4611ZM86.6222 18.5144V19.1843H81.5004V18.5144H86.6222ZM93.711 18.5468V19.3356C93.711 19.9047 93.5993 20.4378 93.376 20.9349C93.1599 21.4319 92.8501 21.8641 92.4467 22.2315C92.0505 22.5989 91.5931 22.8763 91.0744 23.0636L90.6638 22.426C91.132 22.2603 91.5463 22.0226 91.9064 21.7129C92.2666 21.4031 92.5476 21.0429 92.7493 20.6323C92.951 20.2217 93.0518 19.7895 93.0518 19.3356V18.5468H93.711ZM93.8515 18.5468V19.3248C93.8515 19.7354 93.9451 20.128 94.1324 20.5026C94.3269 20.8772 94.597 21.2086 94.9428 21.4968C95.2958 21.7849 95.6992 22.0046 96.1531 22.1559L95.7641 22.7826C95.2526 22.6097 94.8024 22.354 94.4134 22.0154C94.0243 21.6696 93.7218 21.2662 93.5057 20.8052C93.2968 20.3442 93.1923 19.8507 93.1923 19.3248V18.5468H93.8515ZM95.9694 18.2443V18.9142H90.9123V18.2443H95.9694ZM98.0116 17.5419V23.2473H97.2012V17.5419H98.0116ZM99.4272 19.9732V20.6431H97.7847V19.9732H99.4272ZM95.0185 23.5174C95.6524 23.5174 96.1999 23.5858 96.6609 23.7227C97.1292 23.8524 97.4858 24.0469 97.7307 24.3062C97.9828 24.5656 98.1089 24.8753 98.1089 25.2355C98.1089 25.783 97.8315 26.208 97.2768 26.5106C96.7294 26.8203 95.973 26.9752 95.0077 26.9752C94.3737 26.9752 93.8226 26.9068 93.3544 26.7699C92.8934 26.633 92.5368 26.4349 92.2846 26.1756C92.0397 25.9091 91.9172 25.5957 91.9172 25.2355C91.9172 24.8753 92.0397 24.5656 92.2846 24.3062C92.5368 24.0469 92.8934 23.8524 93.3544 23.7227C93.8226 23.5858 94.3773 23.5174 95.0185 23.5174ZM95.0185 24.1657C94.543 24.1657 94.1324 24.209 93.7866 24.2954C93.4408 24.3819 93.1743 24.5043 92.987 24.6628C92.7997 24.8213 92.7061 25.0122 92.7061 25.2355C92.7061 25.5813 92.9114 25.8514 93.322 26.0459C93.7326 26.2404 94.2945 26.3377 95.0077 26.3377C95.7208 26.3377 96.2827 26.2404 96.6933 26.0459C97.104 25.8514 97.3093 25.5813 97.3093 25.2355C97.3093 25.0122 97.2156 24.8213 97.0283 24.6628C96.8482 24.5043 96.5853 24.3819 96.2395 24.2954C95.8937 24.209 95.4867 24.1657 95.0185 24.1657ZM107.845 17.5311V27.0076H107.035V17.5311H107.845ZM102.874 18.2767C103.335 18.2767 103.746 18.4135 104.106 18.6873C104.474 18.9538 104.758 19.3356 104.96 19.8327C105.162 20.3297 105.262 20.906 105.262 21.5616C105.262 22.2171 105.162 22.797 104.96 23.3013C104.758 23.7984 104.474 24.1838 104.106 24.4575C103.746 24.724 103.335 24.8573 102.874 24.8573C102.406 24.8573 101.988 24.724 101.621 24.4575C101.261 24.1838 100.98 23.7984 100.778 23.3013C100.576 22.8042 100.476 22.2243 100.476 21.5616C100.476 20.906 100.576 20.3297 100.778 19.8327C100.98 19.3356 101.261 18.9538 101.621 18.6873C101.988 18.4135 102.406 18.2767 102.874 18.2767ZM102.874 19.0006C102.557 19.0006 102.277 19.1087 102.032 19.3248C101.794 19.5337 101.607 19.8327 101.47 20.2217C101.333 20.6035 101.264 21.0501 101.264 21.5616C101.264 22.0731 101.333 22.5233 101.47 22.9123C101.607 23.3013 101.794 23.6038 102.032 23.82C102.277 24.0289 102.557 24.1333 102.874 24.1333C103.184 24.1333 103.462 24.0289 103.706 23.82C103.951 23.6038 104.142 23.3013 104.279 22.9123C104.416 22.5161 104.484 22.0658 104.484 21.5616C104.484 21.0573 104.416 20.6107 104.279 20.2217C104.142 19.8327 103.951 19.5337 103.706 19.3248C103.462 19.1087 103.184 19.0006 102.874 19.0006ZM115.36 21.4751V22.9123H114.55V21.4751H115.36ZM114.928 17.9849C115.382 17.9849 115.782 18.0642 116.127 18.2226C116.48 18.3739 116.754 18.59 116.949 18.871C117.15 19.1519 117.251 19.4761 117.251 19.8435C117.251 20.2109 117.15 20.535 116.949 20.816C116.754 21.0897 116.48 21.3059 116.127 21.4643C115.782 21.6156 115.382 21.6913 114.928 21.6913C114.474 21.6913 114.071 21.6156 113.718 21.4643C113.372 21.3059 113.098 21.0897 112.897 20.816C112.702 20.535 112.605 20.2109 112.605 19.8435C112.605 19.4761 112.702 19.1519 112.897 18.871C113.098 18.59 113.372 18.3739 113.718 18.2226C114.071 18.0642 114.474 17.9849 114.928 17.9849ZM114.928 18.6116C114.625 18.6116 114.355 18.6657 114.118 18.7737C113.88 18.8746 113.696 19.0187 113.567 19.206C113.437 19.3933 113.372 19.6058 113.372 19.8435C113.372 20.0884 113.437 20.3045 113.567 20.4918C113.696 20.6719 113.876 20.816 114.107 20.9241C114.345 21.0249 114.618 21.0753 114.928 21.0753C115.238 21.0753 115.508 21.0249 115.738 20.9241C115.976 20.816 116.16 20.6719 116.29 20.4918C116.426 20.3045 116.495 20.0884 116.495 19.8435C116.495 19.6058 116.426 19.3933 116.29 19.206C116.16 19.0187 115.976 18.8746 115.738 18.7737C115.501 18.6657 115.231 18.6116 114.928 18.6116ZM119.369 17.5527V24.7817H118.559V17.5527H119.369ZM120.785 20.762V21.4427H119.023V20.762H120.785ZM119.704 26.1V26.7699H113.437V26.1H119.704ZM114.247 24.1657V26.4025H113.437V24.1657H114.247ZM112.054 22.6854C113.185 22.6854 114.236 22.6674 115.209 22.6313C116.189 22.5881 117.104 22.5017 117.954 22.372L118.018 22.9663C117.147 23.132 116.232 23.2401 115.274 23.2905C114.316 23.3337 113.278 23.3553 112.162 23.3553L112.054 22.6854ZM124.729 23.0744V25.4084H123.929V23.0744H124.729ZM127.744 23.0636V25.3976H126.955V23.0636H127.744ZM130.078 25.1382V25.8082H121.509V25.1382H130.078ZM129.008 18.2443V21.0645H123.389V22.9987H122.589V20.4162H128.208V18.9034H122.568V18.2443H129.008ZM129.224 22.6421V23.3121H122.589V22.6421H129.224ZM139.019 21.6372V22.3072H134.189V21.6372H139.019ZM136.955 22.1667V24.3602H136.145V22.1667H136.955ZM138.976 18.4496V19.1087H135V21.8858H134.189V18.4496H138.976ZM141.116 17.5311V27.0076H140.305V17.5311H141.116ZM133.487 24.2522C134.755 24.245 135.879 24.227 136.858 24.1982C137.845 24.1621 138.785 24.0901 139.678 23.982L139.743 24.5764C138.8 24.7204 137.806 24.8177 136.761 24.8681C135.724 24.9185 134.668 24.9401 133.595 24.9329L133.487 24.2522ZM145.968 23.3121V23.8848C145.968 24.2954 145.881 24.6988 145.708 25.095C145.543 25.4912 145.298 25.8478 144.974 26.1648C144.649 26.4745 144.268 26.7123 143.828 26.878L143.417 26.2728C143.799 26.1288 144.134 25.9307 144.422 25.6785C144.718 25.4192 144.941 25.1346 145.092 24.8249C145.251 24.5079 145.33 24.1946 145.33 23.8848V23.3121H145.968ZM146.108 23.3121V23.8848C146.108 24.3891 146.256 24.8717 146.551 25.3328C146.846 25.7866 147.268 26.1252 147.815 26.3485L147.47 26.9644C146.828 26.7051 146.339 26.2945 146 25.7326C145.669 25.1707 145.503 24.5547 145.503 23.8848V23.3121H146.108ZM149.436 23.3121V23.8848C149.436 24.2666 149.361 24.6592 149.209 25.0626C149.065 25.466 148.846 25.837 148.55 26.1756C148.255 26.5142 147.895 26.7771 147.47 26.9644L147.124 26.3485C147.484 26.1828 147.79 25.9631 148.042 25.6893C148.302 25.4084 148.496 25.1094 148.626 24.7925C148.763 24.4683 148.831 24.1657 148.831 23.8848V23.3121H149.436ZM149.62 23.3121V23.8848C149.62 24.2162 149.696 24.5403 149.847 24.8573C150.005 25.1671 150.229 25.448 150.517 25.7001C150.805 25.9451 151.144 26.136 151.533 26.2728L151.122 26.878C150.452 26.633 149.93 26.2404 149.555 25.7001C149.181 25.1527 148.993 24.5475 148.993 23.8848V23.3121H149.62ZM150.074 19.9299V20.5999H147.556V19.9299H150.074ZM145.471 18.0822C145.924 18.0822 146.335 18.1758 146.702 18.3631C147.07 18.5504 147.358 18.8134 147.567 19.1519C147.776 19.4833 147.88 19.8615 147.88 20.2865C147.88 20.7115 147.776 21.0933 147.567 21.4319C147.358 21.7633 147.07 22.0226 146.702 22.2099C146.342 22.3972 145.932 22.4909 145.471 22.4909C145.01 22.4909 144.595 22.3972 144.228 22.2099C143.861 22.0226 143.572 21.7633 143.363 21.4319C143.162 21.1005 143.061 20.7187 143.061 20.2865C143.061 19.8615 143.165 19.4833 143.374 19.1519C143.583 18.8134 143.868 18.5504 144.228 18.3631C144.595 18.1758 145.01 18.0822 145.471 18.0822ZM145.471 18.7629C145.161 18.7629 144.88 18.8278 144.628 18.9574C144.376 19.0871 144.177 19.2708 144.033 19.5085C143.897 19.739 143.828 19.9984 143.828 20.2865C143.828 20.5819 143.897 20.8484 144.033 21.0861C144.177 21.3167 144.372 21.4968 144.617 21.6264C144.869 21.7561 145.154 21.8209 145.471 21.8209C145.78 21.8209 146.058 21.7561 146.303 21.6264C146.555 21.4968 146.749 21.3167 146.886 21.0861C147.03 20.8484 147.102 20.5819 147.102 20.2865C147.102 19.9984 147.03 19.739 146.886 19.5085C146.749 19.2708 146.555 19.0871 146.303 18.9574C146.058 18.8278 145.78 18.7629 145.471 18.7629ZM150.657 17.5419V22.9447H149.847V17.5419H150.657ZM154.223 23.204V24.3386H158.945V23.204H159.745V26.8672H153.424V23.204H154.223ZM154.223 26.208H158.945V24.9762H154.223V26.208ZM160.869 21.8749V22.5341H152.332V21.8749H160.869ZM156.892 17.6499V18.0822C156.892 18.608 156.712 19.0907 156.352 19.5301C155.999 19.9624 155.534 20.3225 154.958 20.6107C154.389 20.8916 153.78 21.0789 153.132 21.1726L152.829 20.535C153.391 20.4558 153.928 20.3009 154.439 20.0704C154.958 19.8327 155.38 19.5409 155.704 19.1952C156.028 18.8422 156.19 18.4712 156.19 18.0822V17.6499H156.892ZM157.022 17.6499V18.0822C157.022 18.464 157.184 18.8314 157.508 19.1843C157.84 19.5301 158.265 19.8255 158.783 20.0704C159.302 20.3081 159.835 20.463 160.383 20.535L160.08 21.1726C159.439 21.0789 158.83 20.888 158.254 20.5999C157.678 20.3117 157.209 19.9515 156.849 19.5193C156.496 19.0799 156.32 18.6008 156.32 18.0822V17.6499H157.022ZM169.492 17.5419V26.9968H168.692V17.5419H169.492ZM163.192 18.4712V24.317H162.382V18.4712H163.192ZM163.16 23.8416C164.766 23.8416 166.276 23.6939 167.687 23.3985L167.796 24.0901C167.003 24.2486 166.229 24.3638 165.472 24.4359C164.716 24.5079 163.945 24.5439 163.16 24.5439H162.382V23.8416H163.16ZM178.483 17.5311V27.0076H177.672V17.5311H178.483ZM180.049 21.2914V21.9722H178.288V21.2914H180.049ZM172.377 23.9496C173.335 23.9496 174.139 23.928 174.787 23.8848C175.443 23.8416 176.102 23.7551 176.764 23.6255L176.862 24.317C176.17 24.4467 175.489 24.5331 174.819 24.5764C174.157 24.6196 173.343 24.6412 172.377 24.6412H171.643V23.9496H172.377ZM176.03 18.4712V19.1303H172.442V24.263H171.643V18.4712H176.03ZM181.454 25.2679C181.613 25.2679 181.739 25.3183 181.833 25.4192C181.933 25.5128 181.984 25.6389 181.984 25.7974C181.984 25.9631 181.933 26.0963 181.833 26.1972C181.739 26.2981 181.613 26.3485 181.454 26.3485C181.296 26.3485 181.163 26.2981 181.055 26.1972C180.954 26.0891 180.903 25.9559 180.903 25.7974C180.903 25.6389 180.954 25.5128 181.055 25.4192C181.155 25.3183 181.289 25.2679 181.454 25.2679Z" fill="black"/>
<defs>
<linearGradient id="paint0_linear_563_237" x1="25.0244" y1="25.5719" x2="31.1438" y2="20.6225" gradientUnits="userSpaceOnUse">
<stop stop-color="#AFD7F0"/>
<stop offset="1" stop-color="#89A0CF"/>
</linearGradient>
<linearGradient id="paint1_linear_563_237" x1="27.0156" y1="20.7952" x2="45.9255" y2="20.7952" gradientUnits="userSpaceOnUse">
<stop stop-color="#90BDE5"/>
<stop offset="1" stop-color="#BFBCDD"/>
</linearGradient>
<linearGradient id="paint2_linear_563_237" x1="43.4721" y1="29.5314" x2="45.4373" y2="27.942" gradientUnits="userSpaceOnUse">
<stop stop-color="#AFD7F0"/>
<stop offset="1" stop-color="#89A0CF"/>
</linearGradient>
<clipPath id="clip0_563_237">
<rect width="18.9099" height="14.8577" fill="white" transform="translate(27.0156 16.208)"/>
</clipPath>
</defs>
</svg>
