<svg width="212" height="53" viewBox="0 0 212 53" fill="none" xmlns="http://www.w3.org/2000/svg">
<g filter="url(#filter0_d_563_237)">
<rect x="4" width="203.956" height="44.5732" rx="10.8056" fill="white" fill-opacity="0.85" shape-rendering="crispEdges"/>
</g>
<g clip-path="url(#clip0_563_237)">
<path d="M31.0156 16.3716V30.9022C31.0156 31.0477 31.2025 31.1205 31.3117 31.0176L38.6762 24.0846C38.7417 24.0229 38.7441 23.9237 38.6817 23.8592L31.317 16.2615C31.2103 16.1514 31.0156 16.2226 31.0156 16.3716Z" fill="url(#paint0_linear_563_237)"/>
<path d="M49.7343 16.208H31.2068C31.0528 16.208 30.9621 16.3712 31.0501 16.4903L37.4967 25.2187C37.5729 25.3219 37.6903 25.3824 37.8146 25.3824H43.3722C43.4992 25.3824 43.6187 25.3195 43.6949 25.2124L49.893 16.4876C49.9778 16.3682 49.887 16.208 49.7343 16.208Z" fill="url(#paint1_linear_563_237)"/>
<path d="M48.2808 30.5329C49.1866 30.5329 49.9209 29.7608 49.9209 28.8084C49.9209 27.856 49.1866 27.084 48.2808 27.084C47.375 27.084 46.6406 27.856 46.6406 28.8084C46.6406 29.7608 47.375 30.5329 48.2808 30.5329Z" fill="url(#paint2_linear_563_237)"/>
</g>
<path d="M71.5879 17.5527V22.9555H70.7775V17.5527H71.5879ZM71.5879 23.4742V26.8672H65.5044V23.4742H71.5879ZM66.2932 24.1225V26.208H70.7991V24.1225H66.2932ZM66.5309 18.0498C66.9991 18.0498 67.4206 18.1434 67.7952 18.3307C68.1698 18.518 68.4615 18.7773 68.6704 19.1087C68.8793 19.4401 68.9838 19.8219 68.9838 20.2541C68.9838 20.6791 68.8793 21.0609 68.6704 21.3995C68.4615 21.7309 68.1698 21.9902 67.7952 22.1775C67.4206 22.3576 66.9991 22.4476 66.5309 22.4476C66.0627 22.4476 65.6412 22.3576 65.2666 22.1775C64.8921 21.9902 64.6003 21.7309 64.3914 21.3995C64.1825 21.0609 64.078 20.6755 64.078 20.2433C64.078 19.8183 64.1825 19.4401 64.3914 19.1087C64.6003 18.7773 64.8921 18.518 65.2666 18.3307C65.6412 18.1434 66.0627 18.0498 66.5309 18.0498ZM66.5309 18.7305C66.2139 18.7305 65.9294 18.7953 65.6773 18.925C65.4251 19.0547 65.227 19.2348 65.0829 19.4653C64.9389 19.6958 64.8668 19.9587 64.8668 20.2541C64.8668 20.5495 64.9389 20.8124 65.0829 21.0429C65.227 21.2734 65.4251 21.4535 65.6773 21.5832C65.9294 21.7057 66.2139 21.7669 66.5309 21.7669C66.8479 21.7669 67.1324 21.7057 67.3846 21.5832C67.6367 21.4535 67.8348 21.2734 67.9789 21.0429C68.1229 20.8124 68.195 20.5495 68.195 20.2541C68.195 19.9587 68.1229 19.6958 67.9789 19.4653C67.8348 19.2348 67.6367 19.0547 67.3846 18.925C67.1324 18.7953 66.8479 18.7305 66.5309 18.7305ZM76.4831 18.3739V20.092C76.4831 20.7908 76.3607 21.4715 76.1158 22.1343C75.878 22.7898 75.5503 23.3733 75.1324 23.8848C74.7146 24.3891 74.2536 24.7673 73.7493 25.0194L73.2523 24.3494C73.7061 24.1333 74.1275 23.802 74.5165 23.3553C74.9127 22.9087 75.2261 22.4008 75.4566 21.8317C75.6871 21.2554 75.8024 20.6755 75.8024 20.092V18.3739H76.4831ZM76.6128 18.3739V20.092C76.6128 20.6539 76.7281 21.2122 76.9586 21.7669C77.1891 22.3144 77.4989 22.8042 77.8879 23.2365C78.2769 23.6687 78.6983 23.9893 79.1521 24.1982L78.6659 24.8465C78.1616 24.5944 77.7006 24.227 77.2828 23.7443C76.8722 23.2617 76.5444 22.7034 76.2995 22.0694C76.0617 21.4283 75.9429 20.7692 75.9429 20.092V18.3739H76.6128ZM81.0107 17.5311V27.0076H80.2003V17.5311H81.0107ZM92.9887 17.5311V27.0076H92.1891V17.5311H92.9887ZM92.4268 20.9997V21.6588H90.1036V20.9997H92.4268ZM88.3098 18.871V20.3622C88.3098 21.0105 88.191 21.6552 87.9532 22.2964C87.7155 22.9303 87.3914 23.4958 86.9807 23.9929C86.5701 24.4899 86.1235 24.8681 85.6408 25.1274L85.1654 24.4791C85.612 24.263 86.0226 23.9352 86.3972 23.4958C86.779 23.0564 87.0816 22.5629 87.3049 22.0154C87.5354 21.4607 87.6507 20.9096 87.6507 20.3622V18.871H88.3098ZM88.4611 18.871V20.3622C88.4611 20.8736 88.5728 21.3923 88.7961 21.9182C89.0266 22.444 89.3328 22.9195 89.7146 23.3445C90.0964 23.7623 90.5106 24.0757 90.9572 24.2846L90.471 24.9329C89.9811 24.688 89.5345 24.3278 89.1311 23.8524C88.7276 23.3697 88.4071 22.8222 88.1694 22.2099C87.9316 21.5976 87.8128 20.9817 87.8128 20.3622V18.871H88.4611ZM90.6222 18.5144V19.1843H85.5004V18.5144H90.6222ZM97.711 18.5468V19.3356C97.711 19.9047 97.5993 20.4378 97.376 20.9349C97.1599 21.4319 96.8501 21.8641 96.4467 22.2315C96.0505 22.5989 95.5931 22.8763 95.0744 23.0636L94.6638 22.426C95.132 22.2603 95.5463 22.0226 95.9064 21.7129C96.2666 21.4031 96.5476 21.0429 96.7493 20.6323C96.951 20.2217 97.0518 19.7895 97.0518 19.3356V18.5468H97.711ZM97.8515 18.5468V19.3248C97.8515 19.7354 97.9451 20.128 98.1324 20.5026C98.3269 20.8772 98.597 21.2086 98.9428 21.4968C99.2958 21.7849 99.6992 22.0046 100.153 22.1559L99.7641 22.7826C99.2526 22.6097 98.8024 22.354 98.4134 22.0154C98.0243 21.6696 97.7218 21.2662 97.5057 20.8052C97.2968 20.3442 97.1923 19.8507 97.1923 19.3248V18.5468H97.8515ZM99.9694 18.2443V18.9142H94.9123V18.2443H99.9694ZM102.012 17.5419V23.2473H101.201V17.5419H102.012ZM103.427 19.9732V20.6431H101.785V19.9732H103.427ZM99.0185 23.5174C99.6524 23.5174 100.2 23.5858 100.661 23.7227C101.129 23.8524 101.486 24.0469 101.731 24.3062C101.983 24.5656 102.109 24.8753 102.109 25.2355C102.109 25.783 101.832 26.208 101.277 26.5106C100.729 26.8203 99.973 26.9752 99.0077 26.9752C98.3737 26.9752 97.8226 26.9068 97.3544 26.7699C96.8934 26.633 96.5368 26.4349 96.2846 26.1756C96.0397 25.9091 95.9172 25.5957 95.9172 25.2355C95.9172 24.8753 96.0397 24.5656 96.2846 24.3062C96.5368 24.0469 96.8934 23.8524 97.3544 23.7227C97.8226 23.5858 98.3773 23.5174 99.0185 23.5174ZM99.0185 24.1657C98.543 24.1657 98.1324 24.209 97.7866 24.2954C97.4408 24.3819 97.1743 24.5043 96.987 24.6628C96.7997 24.8213 96.7061 25.0122 96.7061 25.2355C96.7061 25.5813 96.9114 25.8514 97.322 26.0459C97.7326 26.2404 98.2945 26.3377 99.0077 26.3377C99.7208 26.3377 100.283 26.2404 100.693 26.0459C101.104 25.8514 101.309 25.5813 101.309 25.2355C101.309 25.0122 101.216 24.8213 101.028 24.6628C100.848 24.5043 100.585 24.3819 100.24 24.2954C99.8937 24.209 99.4867 24.1657 99.0185 24.1657ZM111.845 17.5311V27.0076H111.035V17.5311H111.845ZM106.874 18.2767C107.335 18.2767 107.746 18.4135 108.106 18.6873C108.474 18.9538 108.758 19.3356 108.96 19.8327C109.162 20.3297 109.262 20.906 109.262 21.5616C109.262 22.2171 109.162 22.797 108.96 23.3013C108.758 23.7984 108.474 24.1838 108.106 24.4575C107.746 24.724 107.335 24.8573 106.874 24.8573C106.406 24.8573 105.988 24.724 105.621 24.4575C105.261 24.1838 104.98 23.7984 104.778 23.3013C104.576 22.8042 104.476 22.2243 104.476 21.5616C104.476 20.906 104.576 20.3297 104.778 19.8327C104.98 19.3356 105.261 18.9538 105.621 18.6873C105.988 18.4135 106.406 18.2767 106.874 18.2767ZM106.874 19.0006C106.557 19.0006 106.277 19.1087 106.032 19.3248C105.794 19.5337 105.607 19.8327 105.47 20.2217C105.333 20.6035 105.264 21.0501 105.264 21.5616C105.264 22.0731 105.333 22.5233 105.47 22.9123C105.607 23.3013 105.794 23.6038 106.032 23.82C106.277 24.0289 106.557 24.1333 106.874 24.1333C107.184 24.1333 107.462 24.0289 107.706 23.82C107.951 23.6038 108.142 23.3013 108.279 22.9123C108.416 22.5161 108.484 22.0658 108.484 21.5616C108.484 21.0573 108.416 20.6107 108.279 20.2217C108.142 19.8327 107.951 19.5337 107.706 19.3248C107.462 19.1087 107.184 19.0006 106.874 19.0006ZM119.36 21.4751V22.9123H118.55V21.4751H119.36ZM118.928 17.9849C119.382 17.9849 119.782 18.0642 120.127 18.2226C120.48 18.3739 120.754 18.59 120.949 18.871C121.15 19.1519 121.251 19.4761 121.251 19.8435C121.251 20.2109 121.15 20.535 120.949 20.816C120.754 21.0897 120.48 21.3059 120.127 21.4643C119.782 21.6156 119.382 21.6913 118.928 21.6913C118.474 21.6913 118.071 21.6156 117.718 21.4643C117.372 21.3059 117.098 21.0897 116.897 20.816C116.702 20.535 116.605 20.2109 116.605 19.8435C116.605 19.4761 116.702 19.1519 116.897 18.871C117.098 18.59 117.372 18.3739 117.718 18.2226C118.071 18.0642 118.474 17.9849 118.928 17.9849ZM118.928 18.6116C118.625 18.6116 118.355 18.6657 118.118 18.7737C117.88 18.8746 117.696 19.0187 117.567 19.206C117.437 19.3933 117.372 19.6058 117.372 19.8435C117.372 20.0884 117.437 20.3045 117.567 20.4918C117.696 20.6719 117.876 20.816 118.107 20.9241C118.345 21.0249 118.618 21.0753 118.928 21.0753C119.238 21.0753 119.508 21.0249 119.738 20.9241C119.976 20.816 120.16 20.6719 120.29 20.4918C120.426 20.3045 120.495 20.0884 120.495 19.8435C120.495 19.6058 120.426 19.3933 120.29 19.206C120.16 19.0187 119.976 18.8746 119.738 18.7737C119.501 18.6657 119.231 18.6116 118.928 18.6116ZM123.369 17.5527V24.7817H122.559V17.5527H123.369ZM124.785 20.762V21.4427H123.023V20.762H124.785ZM123.704 26.1V26.7699H117.437V26.1H123.704ZM118.247 24.1657V26.4025H117.437V24.1657H118.247ZM116.054 22.6854C117.185 22.6854 118.236 22.6674 119.209 22.6313C120.189 22.5881 121.104 22.5017 121.954 22.372L122.018 22.9663C121.147 23.132 120.232 23.2401 119.274 23.2905C118.316 23.3337 117.278 23.3553 116.162 23.3553L116.054 22.6854ZM128.729 23.0744V25.4084H127.929V23.0744H128.729ZM131.744 23.0636V25.3976H130.955V23.0636H131.744ZM134.078 25.1382V25.8082H125.509V25.1382H134.078ZM133.008 18.2443V21.0645H127.389V22.9987H126.589V20.4162H132.208V18.9034H126.568V18.2443H133.008ZM133.224 22.6421V23.3121H126.589V22.6421H133.224ZM143.019 21.6372V22.3072H138.189V21.6372H143.019ZM140.955 22.1667V24.3602H140.145V22.1667H140.955ZM142.976 18.4496V19.1087H139V21.8858H138.189V18.4496H142.976ZM145.116 17.5311V27.0076H144.305V17.5311H145.116ZM137.487 24.2522C138.755 24.245 139.879 24.227 140.858 24.1982C141.845 24.1621 142.785 24.0901 143.678 23.982L143.743 24.5764C142.8 24.7204 141.806 24.8177 140.761 24.8681C139.724 24.9185 138.668 24.9401 137.595 24.9329L137.487 24.2522ZM149.968 23.3121V23.8848C149.968 24.2954 149.881 24.6988 149.708 25.095C149.543 25.4912 149.298 25.8478 148.974 26.1648C148.649 26.4745 148.268 26.7123 147.828 26.878L147.417 26.2728C147.799 26.1288 148.134 25.9307 148.422 25.6785C148.718 25.4192 148.941 25.1346 149.092 24.8249C149.251 24.5079 149.33 24.1946 149.33 23.8848V23.3121H149.968ZM150.108 23.3121V23.8848C150.108 24.3891 150.256 24.8717 150.551 25.3328C150.846 25.7866 151.268 26.1252 151.815 26.3485L151.47 26.9644C150.828 26.7051 150.339 26.2945 150 25.7326C149.669 25.1707 149.503 24.5547 149.503 23.8848V23.3121H150.108ZM153.436 23.3121V23.8848C153.436 24.2666 153.361 24.6592 153.209 25.0626C153.065 25.466 152.846 25.837 152.55 26.1756C152.255 26.5142 151.895 26.7771 151.47 26.9644L151.124 26.3485C151.484 26.1828 151.79 25.9631 152.042 25.6893C152.302 25.4084 152.496 25.1094 152.626 24.7925C152.763 24.4683 152.831 24.1657 152.831 23.8848V23.3121H153.436ZM153.62 23.3121V23.8848C153.62 24.2162 153.696 24.5403 153.847 24.8573C154.005 25.1671 154.229 25.448 154.517 25.7001C154.805 25.9451 155.144 26.136 155.533 26.2728L155.122 26.878C154.452 26.633 153.93 26.2404 153.555 25.7001C153.181 25.1527 152.993 24.5475 152.993 23.8848V23.3121H153.62ZM154.074 19.9299V20.5999H151.556V19.9299H154.074ZM149.471 18.0822C149.924 18.0822 150.335 18.1758 150.702 18.3631C151.07 18.5504 151.358 18.8134 151.567 19.1519C151.776 19.4833 151.88 19.8615 151.88 20.2865C151.88 20.7115 151.776 21.0933 151.567 21.4319C151.358 21.7633 151.07 22.0226 150.702 22.2099C150.342 22.3972 149.932 22.4909 149.471 22.4909C149.01 22.4909 148.595 22.3972 148.228 22.2099C147.861 22.0226 147.572 21.7633 147.363 21.4319C147.162 21.1005 147.061 20.7187 147.061 20.2865C147.061 19.8615 147.165 19.4833 147.374 19.1519C147.583 18.8134 147.868 18.5504 148.228 18.3631C148.595 18.1758 149.01 18.0822 149.471 18.0822ZM149.471 18.7629C149.161 18.7629 148.88 18.8278 148.628 18.9574C148.376 19.0871 148.177 19.2708 148.033 19.5085C147.897 19.739 147.828 19.9984 147.828 20.2865C147.828 20.5819 147.897 20.8484 148.033 21.0861C148.177 21.3167 148.372 21.4968 148.617 21.6264C148.869 21.7561 149.154 21.8209 149.471 21.8209C149.78 21.8209 150.058 21.7561 150.303 21.6264C150.555 21.4968 150.749 21.3167 150.886 21.0861C151.03 20.8484 151.102 20.5819 151.102 20.2865C151.102 19.9984 151.03 19.739 150.886 19.5085C150.749 19.2708 150.555 19.0871 150.303 18.9574C150.058 18.8278 149.78 18.7629 149.471 18.7629ZM154.657 17.5419V22.9447H153.847V17.5419H154.657ZM158.223 23.204V24.3386H162.945V23.204H163.745V26.8672H157.424V23.204H158.223ZM158.223 26.208H162.945V24.9762H158.223V26.208ZM164.869 21.8749V22.5341H156.332V21.8749H164.869ZM160.892 17.6499V18.0822C160.892 18.608 160.712 19.0907 160.352 19.5301C159.999 19.9624 159.534 20.3225 158.958 20.6107C158.389 20.8916 157.78 21.0789 157.132 21.1726L156.829 20.535C157.391 20.4558 157.928 20.3009 158.439 20.0704C158.958 19.8327 159.38 19.5409 159.704 19.1952C160.028 18.8422 160.19 18.4712 160.19 18.0822V17.6499H160.892ZM161.022 17.6499V18.0822C161.022 18.464 161.184 18.8314 161.508 19.1843C161.84 19.5301 162.265 19.8255 162.783 20.0704C163.302 20.3081 163.835 20.463 164.383 20.535L164.08 21.1726C163.439 21.0789 162.83 20.888 162.254 20.5999C161.678 20.3117 161.209 19.9515 160.849 19.5193C160.496 19.0799 160.32 18.6008 160.32 18.0822V17.6499H161.022ZM173.492 17.5419V26.9968H172.692V17.5419H173.492ZM167.192 18.4712V24.317H166.382V18.4712H167.192ZM167.16 23.8416C168.766 23.8416 170.276 23.6939 171.687 23.3985L171.796 24.0901C171.003 24.2486 170.229 24.3638 169.472 24.4359C168.716 24.5079 167.945 24.5439 167.16 24.5439H166.382V23.8416H167.16ZM182.483 17.5311V27.0076H181.672V17.5311H182.483ZM184.049 21.2914V21.9722H182.288V21.2914H184.049ZM176.377 23.9496C177.335 23.9496 178.139 23.928 178.787 23.8848C179.443 23.8416 180.102 23.7551 180.764 23.6255L180.862 24.317C180.17 24.4467 179.489 24.5331 178.819 24.5764C178.157 24.6196 177.343 24.6412 176.377 24.6412H175.643V23.9496H176.377ZM180.03 18.4712V19.1303H176.442V24.263H175.643V18.4712H180.03ZM185.454 25.2679C185.613 25.2679 185.739 25.3183 185.833 25.4192C185.933 25.5128 185.984 25.6389 185.984 25.7974C185.984 25.9631 185.933 26.0963 185.833 26.1972C185.739 26.2981 185.613 26.3485 185.454 26.3485C185.296 26.3485 185.163 26.2981 185.055 26.1972C184.954 26.0891 184.903 25.9559 184.903 25.7974C184.903 25.6389 184.954 25.5128 185.055 25.4192C185.155 25.3183 185.289 25.2679 185.454 25.2679Z" fill="black"/>
<defs>
<filter id="filter0_d_563_237" x="0" y="0" width="211.953" height="52.5732" filterUnits="userSpaceOnUse" color-interpolation-filters="sRGB">
<feFlood flood-opacity="0" result="BackgroundImageFix"/>
<feColorMatrix in="SourceAlpha" type="matrix" values="0 0 0 0 0 0 0 0 0 0 0 0 0 0 0 0 0 0 127 0" result="hardAlpha"/>
<feOffset dy="4"/>
<feGaussianBlur stdDeviation="2"/>
<feComposite in2="hardAlpha" operator="out"/>
<feColorMatrix type="matrix" values="0 0 0 0 0 0 0 0 0 0 0 0 0 0 0 0 0 0 0.25 0"/>
<feBlend mode="normal" in2="BackgroundImageFix" result="effect1_dropShadow_563_237"/>
<feBlend mode="normal" in="SourceGraphic" in2="effect1_dropShadow_563_237" result="shape"/>
</filter>
<linearGradient id="paint0_linear_563_237" x1="29.0244" y1="25.5719" x2="35.1438" y2="20.6225" gradientUnits="userSpaceOnUse">
<stop stop-color="#AFD7F0"/>
<stop offset="1" stop-color="#89A0CF"/>
</linearGradient>
<linearGradient id="paint1_linear_563_237" x1="31.0156" y1="20.7952" x2="49.9255" y2="20.7952" gradientUnits="userSpaceOnUse">
<stop stop-color="#90BDE5"/>
<stop offset="1" stop-color="#BFBCDD"/>
</linearGradient>
<linearGradient id="paint2_linear_563_237" x1="47.4721" y1="29.5314" x2="49.4373" y2="27.942" gradientUnits="userSpaceOnUse">
<stop stop-color="#AFD7F0"/>
<stop offset="1" stop-color="#89A0CF"/>
</linearGradient>
<clipPath id="clip0_563_237">
<rect width="18.9099" height="14.8577" fill="white" transform="translate(31.0156 16.208)"/>
</clipPath>
</defs>
</svg>
