<svg xmlns="http://www.w3.org/2000/svg" width="21" height="20" viewBox="0 0 21 20" fill="none">
  <g filter="url(#filter0_d_0_26)">
    <path d="M9.0854 11.2795V7.67697H11.9115V11.2795C11.9115 11.6758 12.2294 12 12.618 12H14.7375C15.1261 12 15.444 11.6758 15.444 11.2795V6.23596H16.6451C16.9701 6.23596 17.1256 5.82528 16.8783 5.60913L10.9718 0.183729C10.7033 -0.0612429 10.2935 -0.0612429 10.0251 0.183729L4.11859 5.60913C3.87837 5.82528 4.02674 6.23596 4.35174 6.23596H5.55282V11.2795C5.55282 11.6758 5.87075 12 6.25933 12H8.37888C8.76747 12 9.0854 11.6758 9.0854 11.2795Z" fill="#2F3438"/>
  </g>
  <defs>
    <filter id="filter0_d_0_26" x="0" y="0" width="21" height="20" filterUnits="userSpaceOnUse" color-interpolation-filters="sRGB">
      <feFlood flood-opacity="0" result="BackgroundImageFix"/>
      <feColorMatrix in="SourceAlpha" type="matrix" values="0 0 0 0 0 0 0 0 0 0 0 0 0 0 0 0 0 0 127 0" result="hardAlpha"/>
      <feOffset dy="4"/>
      <feGaussianBlur stdDeviation="2"/>
      <feComposite in2="hardAlpha" operator="out"/>
      <feColorMatrix type="matrix" values="0 0 0 0 0 0 0 0 0 0 0 0 0 0 0 0 0 0 0.25 0"/>
      <feBlend mode="normal" in2="BackgroundImageFix" result="effect1_dropShadow_0_26"/>
      <feBlend mode="normal" in="SourceGraphic" in2="effect1_dropShadow_0_26" result="shape"/>
    </filter>
  </defs>
</svg>