<svg xmlns="http://www.w3.org/2000/svg" width="22" height="20" viewBox="0 0 22 20" fill="none">
  <g filter="url(#filter0_d_0_30)">
    <path d="M5.4 11.5C5.015 11.5 4.6825 11.3682 4.4025 11.1047C4.13417 10.8297 4 10.5031 4 10.125V1.875C4 1.49688 4.13417 1.17604 4.4025 0.9125C4.6825 0.6375 5.015 0.5 5.4 0.5H16.6C16.985 0.5 17.3117 0.6375 17.58 0.9125C17.86 1.17604 18 1.49688 18 1.875V10.125C18 10.5031 17.86 10.8297 17.58 11.1047C17.3117 11.3682 16.985 11.5 16.6 11.5H5.4ZM11 6.6875L16.6 3.25V1.875L11 5.3125L5.4 1.875V3.25L11 6.6875Z" fill="#2F3438"/>
  </g>
  <defs>
    <filter id="filter0_d_0_30" x="0" y="0.5" width="22" height="19" filterUnits="userSpaceOnUse" color-interpolation-filters="sRGB">
      <feFlood flood-opacity="0" result="BackgroundImageFix"/>
      <feColorMatrix in="SourceAlpha" type="matrix" values="0 0 0 0 0 0 0 0 0 0 0 0 0 0 0 0 0 0 127 0" result="hardAlpha"/>
      <feOffset dy="4"/>
      <feGaussianBlur stdDeviation="2"/>
      <feComposite in2="hardAlpha" operator="out"/>
      <feColorMatrix type="matrix" values="0 0 0 0 0 0 0 0 0 0 0 0 0 0 0 0 0 0 0.25 0"/>
      <feBlend mode="normal" in2="BackgroundImageFix" result="effect1_dropShadow_0_30"/>
      <feBlend mode="normal" in="SourceGraphic" in2="effect1_dropShadow_0_30" result="shape"/>
    </filter>
  </defs>
</svg>