<svg xmlns="http://www.w3.org/2000/svg" width="21" height="22" viewBox="0 0 21 22" fill="none">
  <g filter="url(#filter0_d_0_34)">
    <path d="M16.8525 9.99666C16.4766 9.39914 15.9179 7.70844 15.9179 5.50022C15.9179 4.17408 15.3472 2.90225 14.3312 1.96453C13.3152 1.02681 11.9372 0.5 10.5003 0.5C9.0635 0.5 7.68551 1.02681 6.66951 1.96453C5.65352 2.90225 5.08274 4.17408 5.08274 5.50022C5.08274 7.70906 4.52337 9.39914 4.14752 9.99666C4.05154 10.1486 4.00066 10.3212 4.00001 10.497C3.99935 10.6729 4.04895 10.8457 4.1438 10.9983C4.23864 11.1508 4.37539 11.2775 4.54023 11.3657C4.70508 11.4539 4.89221 11.5003 5.08274 11.5005H7.84639C7.97138 12.065 8.30379 12.5723 8.78738 12.9367C9.27098 13.301 9.87608 13.5 10.5003 13.5C11.1246 13.5 11.7297 13.301 12.2133 12.9367C12.6969 12.5723 13.0293 12.065 13.1543 11.5005H15.9179C16.1084 11.5002 16.2955 11.4537 16.4602 11.3654C16.625 11.2772 16.7616 11.1505 16.8564 10.998C16.9511 10.8455 17.0007 10.6726 17 10.4968C16.9993 10.321 16.9484 10.1485 16.8525 9.99666ZM10.5003 12.5005C10.1643 12.5004 9.8366 12.4042 9.56228 12.2251C9.28796 12.046 9.08052 11.7929 8.96851 11.5005H12.0322C11.9202 11.7929 11.7127 12.046 11.4384 12.2251C11.1641 12.4042 10.8364 12.5004 10.5003 12.5005Z" fill="#2F3438"/>
  </g>
  <defs>
    <filter id="filter0_d_0_34" x="0" y="0.5" width="21" height="21" filterUnits="userSpaceOnUse" color-interpolation-filters="sRGB">
      <feFlood flood-opacity="0" result="BackgroundImageFix"/>
      <feColorMatrix in="SourceAlpha" type="matrix" values="0 0 0 0 0 0 0 0 0 0 0 0 0 0 0 0 0 0 127 0" result="hardAlpha"/>
      <feOffset dy="4"/>
      <feGaussianBlur stdDeviation="2"/>
      <feComposite in2="hardAlpha" operator="out"/>
      <feColorMatrix type="matrix" values="0 0 0 0 0 0 0 0 0 0 0 0 0 0 0 0 0 0 0.25 0"/>
      <feBlend mode="normal" in2="BackgroundImageFix" result="effect1_dropShadow_0_34"/>
      <feBlend mode="normal" in="SourceGraphic" in2="effect1_dropShadow_0_34" result="shape"/>
    </filter>
  </defs>
</svg>