<svg width="20" height="22" viewBox="0 0 20 22" fill="none" xmlns="http://www.w3.org/2000/svg">
<g id="profile" filter="url(#filter0_d_0_37)">
<path d="M14.6667 1.8H11.88C11.6 1.046 10.8667 0.5 10 0.5C9.13333 0.5 8.4 1.046 8.12 1.8H5.33333C4.6 1.8 4 2.385 4 3.1V12.2C4 12.915 4.6 13.5 5.33333 13.5H14.6667C15.4 13.5 16 12.915 16 12.2V3.1C16 2.385 15.4 1.8 14.6667 1.8ZM10 1.8C10.3667 1.8 10.6667 2.0925 10.6667 2.45C10.6667 2.8075 10.3667 3.1 10 3.1C9.63333 3.1 9.33333 2.8075 9.33333 2.45C9.33333 2.0925 9.63333 1.8 10 1.8ZM10 4.4C11.1067 4.4 12 5.271 12 6.35C12 7.429 11.1067 8.3 10 8.3C8.89333 8.3 8 7.429 8 6.35C8 5.271 8.89333 4.4 10 4.4ZM14 12.2H6V11.29C6 9.99 8.66667 9.275 10 9.275C11.3333 9.275 14 9.99 14 11.29V12.2Z" fill="#2F3438"/>
</g>
<defs>
<filter id="filter0_d_0_37" x="0" y="0.5" width="20" height="21" filterUnits="userSpaceOnUse" color-interpolation-filters="sRGB">
<feFlood flood-opacity="0" result="BackgroundImageFix"/>
<feColorMatrix in="SourceAlpha" type="matrix" values="0 0 0 0 0 0 0 0 0 0 0 0 0 0 0 0 0 0 127 0" result="hardAlpha"/>
<feOffset dy="4"/>
<feGaussianBlur stdDeviation="2"/>
<feComposite in2="hardAlpha" operator="out"/>
<feColorMatrix type="matrix" values="0 0 0 0 0 0 0 0 0 0 0 0 0 0 0 0 0 0 0.25 0"/>
<feBlend mode="normal" in2="BackgroundImageFix" result="effect1_dropShadow_0_37"/>
<feBlend mode="normal" in="SourceGraphic" in2="effect1_dropShadow_0_37" result="shape"/>
</filter>
</defs>
</svg>
