<svg width="26" height="26" viewBox="0 0 26 26" fill="none" xmlns="http://www.w3.org/2000/svg">
<path d="M17.2802 19.5201C16.6278 19.5201 16.0032 19.4265 15.4064 19.2393C14.8095 19.0521 14.2598 18.781 13.7572 18.426C14.4974 17.724 15.0687 16.9065 15.4712 15.9733C15.8744 15.0395 16.076 14.0617 16.076 13.0401C16.076 12.0184 15.8744 11.0406 15.4712 10.1068C15.068 9.17294 14.497 8.35574 13.7583 7.65518C14.2594 7.29878 14.8088 7.02698 15.4064 6.83978C16.004 6.6533 16.6286 6.56006 17.2802 6.56006C19.0816 6.56006 20.612 7.1897 21.8712 8.44898C23.1305 9.70826 23.7602 11.2386 23.7602 13.0401C23.7602 14.8415 23.1305 16.3719 21.8712 17.6311C20.612 18.8904 19.0816 19.5201 17.2802 19.5201ZM8.64016 19.5201C6.83872 19.5201 5.30836 18.8904 4.04908 17.6311C2.7898 16.3719 2.16016 14.8415 2.16016 13.0401C2.16016 11.2386 2.7898 9.70826 4.04908 8.44898C5.30836 7.1897 6.83872 6.56006 8.64016 6.56006C9.29248 6.56006 9.91744 6.65366 10.515 6.84086C11.1126 7.02806 11.6616 7.2995 12.162 7.65518C12.0224 7.78262 11.8902 7.91834 11.7657 8.06234L11.3942 8.49542C11.0061 8.2247 10.5791 8.01446 10.1133 7.8647C9.64744 7.71494 9.1564 7.64006 8.64016 7.64006C7.14616 7.64006 5.87284 8.16674 4.8202 9.2201C3.76756 10.2735 3.24088 11.5468 3.24016 13.0401C3.23944 14.5333 3.76612 15.807 4.8202 16.8611C5.87428 17.9152 7.1476 18.4415 8.64016 18.4401C9.1564 18.4401 9.6478 18.3652 10.1144 18.2154C10.5795 18.0657 11.0061 17.8554 11.3942 17.5847L11.7657 18.0167C11.8902 18.1621 12.0224 18.2986 12.162 18.426C11.6616 18.7817 11.1126 19.0531 10.515 19.2403C9.91744 19.4268 9.29248 19.5201 8.64016 19.5201ZM12.9602 17.8374C12.2805 17.2326 11.7506 16.5126 11.3704 15.6774C10.9902 14.8422 10.8002 13.9631 10.8002 13.0401C10.8002 12.117 10.9902 11.2379 11.3704 10.4027C11.7506 9.5675 12.2805 8.8475 12.9602 8.2427C13.6398 8.8475 14.1698 9.5675 14.5499 10.4027C14.9301 11.2379 15.1202 12.117 15.1202 13.0401C15.1202 13.9631 14.9301 14.8422 14.5499 15.6774C14.1698 16.5126 13.6398 17.2326 12.9602 17.8374Z" fill="black"/>
</svg>
