<svg width="22" height="23" viewBox="0 0 22 23" fill="none" xmlns="http://www.w3.org/2000/svg">
<g id="settings" filter="url(#filter0_d_0_40)">
<path fill-rule="evenodd" clip-rule="evenodd" d="M9.91351 0C9.62862 0 9.38029 0.195207 9.31121 0.473457L8.85539 2.30947C8.46202 2.47322 8.08851 2.68169 7.74216 2.93082L5.95308 2.35642C5.68175 2.26931 5.38634 2.37921 5.23649 2.62302L4.0929 4.48364C3.94299 4.72755 3.97723 5.04287 4.17594 5.24841L5.48545 6.60287C5.38809 7.19694 5.38809 7.80306 5.48545 8.39713L4.17594 9.75156C3.9772 9.95712 3.94298 10.2725 4.09295 10.5164L5.23654 12.3764C5.38638 12.6201 5.68166 12.73 5.95292 12.643L7.74182 12.0692C8.08823 12.3187 8.46185 12.5275 8.85539 12.6916L9.31123 14.5266C9.38034 14.8048 9.62865 15 9.91351 15H12.0865C12.3714 15 12.6197 14.8048 12.6888 14.5266L13.1446 12.6905C13.5379 12.5268 13.9114 12.3184 14.2577 12.0693L16.0466 12.6447C16.3181 12.7321 16.6137 12.6221 16.7636 12.3781L17.9072 10.5162C18.057 10.2723 18.0227 9.95706 17.824 9.75156L16.5141 8.39656C16.5621 8.10087 16.5868 7.80169 16.5876 7.50175V7.49825C16.5868 7.19831 16.5621 6.89913 16.5141 6.60344L17.824 5.24841C18.0228 5.04287 18.057 4.72755 17.9071 4.48364L16.7635 2.62302C16.6136 2.37921 16.3182 2.26931 16.0469 2.35642L14.2581 2.93074C13.9117 2.68126 13.5381 2.47246 13.1446 2.30842L12.6887 0.473374C12.6196 0.195164 12.3714 0 12.0865 0H9.91351ZM9.98131 2.92967L10.3983 1.25H11.6018L12.0187 2.9285C12.0697 3.1338 12.2204 3.29917 12.4192 3.36794C12.9018 3.5349 13.3514 3.78611 13.7475 4.11006C13.91 4.24299 14.1281 4.28451 14.3276 4.22045L15.9626 3.69554L16.5961 4.72633L15.3977 5.96596C15.2509 6.11777 15.1905 6.33413 15.2372 6.54069C15.3084 6.85544 15.3449 7.17719 15.3459 7.5C15.3449 7.82281 15.3084 8.14456 15.2372 8.45931C15.1905 8.66587 15.2509 8.88225 15.3977 9.03406L16.5962 10.2738L15.9626 11.3054L14.3279 10.7796C14.1285 10.7155 13.9104 10.7569 13.7478 10.8897C13.3517 11.2133 12.9021 11.4641 12.4196 11.6307C12.2206 11.6994 12.0697 11.8649 12.0187 12.0703L11.6017 13.75H10.3982L9.98125 12.0715C9.93028 11.8662 9.77954 11.7008 9.58075 11.6321C9.09817 11.4651 8.64856 11.2139 8.25254 10.8899C8.09007 10.7571 7.87201 10.7155 7.67254 10.7795L6.03744 11.304L5.40394 10.2736L6.60234 9.03406C6.74954 8.88181 6.80982 8.66469 6.76239 8.45769C6.61802 7.8275 6.61802 7.1725 6.76239 6.54231C6.80982 6.33531 6.74954 6.11821 6.60234 5.96596L5.40389 4.72633L6.03744 3.69554L7.67238 4.22045C7.87174 4.28446 8.08972 4.24306 8.25221 4.11032C8.64831 3.78676 9.09792 3.53593 9.58042 3.36931C9.77941 3.3006 9.93028 3.13512 9.98131 2.92967ZM9.13741 7.5C9.13741 6.46444 9.97131 5.625 10.9999 5.625C12.0286 5.625 12.8624 6.46444 12.8624 7.5C12.8624 8.53556 12.0286 9.375 10.9999 9.375C9.97131 9.375 9.13741 8.53556 9.13741 7.5ZM10.9999 4.375C9.28553 4.375 7.89573 5.77411 7.89573 7.5C7.89573 9.22587 9.28553 10.625 10.9999 10.625C12.7143 10.625 14.1041 9.22587 14.1041 7.5C14.1041 5.77411 12.7143 4.375 10.9999 4.375Z" fill="#2F3438"/>
</g>
<defs>
<filter id="filter0_d_0_40" x="0" y="0" width="22" height="23" filterUnits="userSpaceOnUse" color-interpolation-filters="sRGB">
<feFlood flood-opacity="0" result="BackgroundImageFix"/>
<feColorMatrix in="SourceAlpha" type="matrix" values="0 0 0 0 0 0 0 0 0 0 0 0 0 0 0 0 0 0 127 0" result="hardAlpha"/>
<feOffset dy="4"/>
<feGaussianBlur stdDeviation="2"/>
<feComposite in2="hardAlpha" operator="out"/>
<feColorMatrix type="matrix" values="0 0 0 0 0 0 0 0 0 0 0 0 0 0 0 0 0 0 0.25 0"/>
<feBlend mode="normal" in2="BackgroundImageFix" result="effect1_dropShadow_0_40"/>
<feBlend mode="normal" in="SourceGraphic" in2="effect1_dropShadow_0_40" result="shape"/>
</filter>
</defs>
</svg>
